<svg version="1.1" id="Слой_1" xmlns="http://www.w3.org/2000/svg" x="0" y="0" viewBox="0 0 668 358" xml:space="preserve"><style>.st0{fill:#fff3f9}.st1{fill:none;stroke:#6e7680;stroke-miterlimit:10}.st3{fill:#902156}.st6{fill:#313335}.st7{fill:#ffb288}.st8{fill:none;stroke:#6a737c;stroke-width:.5;stroke-miterlimit:10}.st9{fill:#6e7680}.st10,.st11{fill:none;stroke:#6e7680;stroke-width:.5;stroke-miterlimit:10}.st11{stroke:#313335;stroke-width:5;stroke-linecap:round;stroke-linejoin:round}.st12{fill:#a82f69}.st14{fill:none;stroke:#929fae;stroke-width:.5;stroke-miterlimit:10}.st15{fill:#653230}.st16{fill:#6a737c}.st19{fill:#875453}.st20{fill:#ffcfe6}.st21{fill:none;stroke:#dfa5c1;stroke-width:.5;stroke-miterlimit:10}</style><path class="st0" d="M629.1 326.3c-4-7.7-20.2-13.7-27.4-15-38.6-7.4-79.1-6.3-118.1-6.2-42.6.1-83.2 6.9-125.5 10.2-21.9 1.6-45.2-1.3-67.2-2.1-36.2-1.3-72.5-2.8-108.7-4.4-31.2-1.5-63.6 1.8-91.3 19-3.1 1.9-6.3 4.3-7.7 7.8-9 22.1 102.7 19.3 117.2 19.7 73.3 1.9 146.7 2.9 220 .9 54.5-1.5 111.3-1.3 165.4-9.1 11.9-1.8 28.3-2.4 38.6-9.3 5.7-4.2 6.5-8 4.7-11.5z"/><path class="st1" d="M581.5 24.8h2.9"/><path d="M590.3 25.2c19 1.9 42.3 10 39.5 26.4-4.3 26.2-120.9 16.5-148.8 16.8-56 .6-112.5.7-167.5 13-13.4 2.9-32.4 9.6-31.1 26.5.4 5.9 4 11.3 8.5 15.3 16.1 14.4 38.3 15.9 59.1 18.4 31.4 3.8 180.6-1.3 229.3 14.7 9.6 3.1 21.7 7.2 21.9 20.9 1 34.9-85.6 33.2-111.6 33.9-69.4 1.8-138.7 1-208.1-.3-56.1-1.2-112.2-2.1-168.2-5.7-20.9-1.3-54.9-1.8-70.8-17.4-8.8-8.7-10-24.8 4-32.9 9.9-5.7 39-3.2 50.2-4.1 33.9-2.9 23.6-23.4-3.8-26.1" fill="none" stroke="#6e7680" stroke-miterlimit="10" stroke-dasharray="4.01,4.01"/><path class="st1" d="M90.2 124.7h-2.9"/><path class="st0" d="M583.6 50.3l-9-47.3c-.6-2.8-4-4-6-2.1l-36.4 31.4c-2.2 1.9-1.5 5.5 1.2 6.3l45.4 15.9c2.6 1 5.2-1.4 4.8-4.2z"/><path class="st3" d="M576.7 49.6c-.3 0-.4 0-.7-.1l-37.3-13.1c-.7-.3-1.3-.9-1.5-1.8-.1-.9.1-1.6.7-2.2l29.9-25.8c.6-.6 1.5-.7 2.2-.4.7.3 1.3.9 1.5 1.8l7.4 38.9c.1.9-.1 1.6-.7 2.2-.5.3-1 .5-1.5.5zm-36.1-15.7l35.2 12.4-6.9-36.7-28.3 24.3z"/><path class="st3" d="M560.5 33.8c-.7-.3-1-1-.9-1.8l3.7-13c.3-1.2 1.6-1.9 2.8-1.5 1.2.4 1.8 1.8 1.3 2.9l-5.2 12.5c-.3.7-1 1-1.7.9zm.2 3.5c-.3.7-1 1.2-1.8.9-.7-.3-1.2-1-.9-1.8.3-.7 1-1.2 1.8-.9.8.2 1.2 1.1.9 1.8z"/><path class="st0" d="M84.1 108.9L54.7 94.3c-1.8-.9-3.8.4-3.7 2.5l2.1 32.7c.1 1.9 2.4 3.1 4 1.9l27.4-18.1c1.6-1 1.4-3.5-.4-4.4z"/><path class="st3" d="M80.9 112.5c-.1.1-.3.3-.4.3l-22.4 15c-.4.3-1 .3-1.6.1-.4-.3-.9-.7-.9-1.3l-1.6-27c0-.6.3-1 .7-1.5.4-.3 1-.3 1.6-.1l24.2 12.1c.4.3.9.7.9 1.3-.2.3-.3.8-.5 1.1zm-23.4 13.1l21.2-14.1-22.8-11.3 1.6 25.4z"/><path class="st3" d="M65.6 114.7c-.4.3-1 .1-1.3-.3l-5.6-7.4c-.4-.6-.3-1.6.4-2.1s1.6-.3 2.1.4l4.6 8c.4.6.2 1.1-.2 1.4zm2.1 1.3c.3.4.1 1-.3 1.3-.4.3-1 .1-1.3-.3-.3-.4-.1-1 .3-1.3.4-.3 1-.1 1.3.3z"/><path d="M104.8 174.8c1.4 0 2.5-1.1 2.5-2.5s-1.1-2.5-2.5-2.5-2.5 1.1-2.5 2.5c-.1 1.4 1.1 2.5 2.5 2.5zm362.9-45.2c1.4 0 2.5-1.1 2.5-2.5s-1.1-2.5-2.5-2.5-2.5 1.1-2.5 2.5 1.1 2.5 2.5 2.5zM275.2 61.1c1.4 0 2.5-1.1 2.5-2.5s-1.1-2.5-2.5-2.5-2.5 1.1-2.5 2.5c0 1.3 1.1 2.5 2.5 2.5zm-3 185.9c1.4 0 2.5-1.1 2.5-2.5s-1.1-2.5-2.5-2.5-2.5 1.1-2.5 2.5 1.1 2.5 2.5 2.5z" fill="none" stroke="#ffcfe6" stroke-miterlimit="10"/><path d="M329.2 100.5v5.5m2.7-2.8h-5.4m102-73.4v5.5m2.6-2.7h-5.5m156.5 146.5v5.5m2.7-2.7h-5.4" stroke-linecap="round" stroke-linejoin="round" fill="none" stroke="#ffcfe6" stroke-miterlimit="10"/><path class="st6" d="M378.8 337.3s-10.3 4.4-10.3 6.6c0 1.3 14.1-.6 15-1.3 1.3-1.3-.6-5-.6-5l-4.1-.3z"/><path class="st7" d="M378.1 331.1l.6 6.3s.3 1 1.8 1.2c1.5.1 2.4-1.2 2.4-1.2l-.4-8"/><path class="st6" d="M396.1 185.8c3.7 15 2.4 22.7-3.1 34.2-3.4 38.3-5.6 76.5-10.2 113.7l-4.7.3c-10.8-36.4-20.6-90.6-19.4-140.4"/><path class="st8" d="M393.9 191c1.3 3.5 1.8 7.5 1.6 11.2-.1 5.7-2.5 10.9-4 16.4-2.1 7.2-2.2 14.4-2.7 22-.9 11.6-1.8 23.3-2.7 34.9-1.5 19-2.9 37.9-4.4 56.9 0 .6-.1 1.2-.1 1.6"/><path class="st6" d="M419.9 338.8s-10.3 4.4-10.3 6.6c0 1.3 14.1-.6 15-1.3 1.3-1.3-.6-5-.6-5l-4.1-.3z"/><path class="st7" d="M419.2 332.6l.6 6.3s.3 1 1.8 1.2c1.5.1 2.4-1.2 2.4-1.2l-.4-8"/><path class="st6" d="M430.4 184.5c4.7 14.9 3.8 22.5-.9 34.3-.7 38.5-3.4 78.5-5.4 116.1h-4.9c-13.1-35.5-27.2-90.5-29.2-140.1"/><path class="st8" d="M428 190.7s5.5 12.8-3.8 30.9c-1 17.1-1.6 113.3-1.6 113.3"/><path class="st8" d="M414.5 194.8c.9 1.5 2.4 2.5 4 3.1 1.6.6 3.2.9 5 1.2 2.1.3 4.1.4 6.2.3m-14.6-2.2c1.8 1.6 4 2.5 6.3 3.1 2.4.6 4.7.6 7.1.7"/><path class="st7" d="M374.1 113.1c-16.3 28.4-34 54.4-44.5 85.5l-3.1-1.6c.7-28.9 10.2-71 22.5-97.2"/><path class="st9" d="M366.2 83.2s-5 1.5-11 5.5c-5.6 3.7-9.9 9.3-12.7 15.3-2.9 6-4.4 12.7-5.4 19.3 0 0 6.9 3.4 14.7 4.4 7.8 1 16.2 0 16.2 0"/><path class="st9" d="M354 100.1c-1.8 30.8-.4 62.5.4 92.5 0 0 10.8 2.8 36.8 2.8 26.1 0 43-8 43-8-5-30.8-9-68.7-21.4-94 0 0-14-15-27.7-15.6-2.8-.1-5.5.9-8.1 2.1-1.9.9-10.9 3.1-10.9 3.1L354 100.1z"/><path class="st10" d="M353.8 102.7c-.7 5.9-.7 24.2-.7 24.2"/><path class="st11" d="M379.7 202.4c43.6-4.9 61.9 50.5 71.9 71.9C475 325 563.7 319.4 604 319.4c52.9 0 76.1 17.8 51.4 27.1"/><path class="st12" d="M394.8 204.9c0 22.4-16.9 36-31.5 36h-23.9v-72h23.9c14.5-.1 31.5 13.4 31.5 36z"/><path class="st3" d="M382.5 204.9c0 22-13 39.8-29 39.8h-26.2v-79.6h26.2c16.1 0 29 17.8 29 39.8z"/><path d="M388.4 183c-5.7 7.8-11.2 15.6-16.6 23.6.7-.1 1.5-.6 2.1-1 0 .6-.9 1.6-.1 2.1.9.4 1.8-.6 2.7-.3.9-.1 1.6-1.2 2.2-1.8-.3.6-.3 1-.3 1.3 5.7-2.2 11-7.7 15.5-12.1-1.4-4.4-3.3-8.4-5.5-11.8z" opacity=".5" fill="#fdae2b"/><path class="st12" d="M329.2 244.6c16 0 29-17.8 29-39.8 0-22-13-39.8-29-39.8s-29 17.8-29 39.8c0 22 13 39.8 29 39.8z"/><path class="st3" d="M331.6 218.9c0 3.2-2.2 5.9-5 5.9s-5-2.7-5-5.9 2.2-5.9 5-5.9 5 2.6 5 5.9zm0-28.2c0 3.2-2.2 5.9-5 5.9s-5-2.7-5-5.9 2.2-5.9 5-5.9 5 2.7 5 5.9z"/><path class="st7" d="M420.8 122.8s1.8 18.7-6.5 34.3c-7.2 13.4-21.4 30.6-33 40.1l-2.8-.7c4-15.3 16.6-42.7 17.4-52.9.7-10.2.6-22.1.7-27.8"/><path class="st9" d="M385.2 77.8s15.5 1 24.4 8.7c12.8 10.8 14.7 32 14.7 36.8-3.8 4.1-12.4 4.4-18.4 4.4-6 0-10.6-2.9-10.6-2.9l-1.3-23.3"/><path class="st7" d="M379.7 194.4c-1.8.1-3.4 1-5 2.2-1.3 1-2.9 2.8-2.8 3.7.1.9 2.4-.7 2.7-.4.3.3-3.8 6.5-3.1 6.9.7.4 4.3-5.2 4.3-5.2s-3.4 5.9-2.1 6c1 .1 4.1-5.5 4.1-5.5s-2.5 5-1.6 5.2c.9.1 3.2-4.9 3.2-4.9s-1.9 4.3-1.2 4.4c.3 0 2.2-2.1 3.1-4.7.7-2.5 1.6-4.7 1-6.8"/><path class="st14" d="M395.8 103.9v21.2"/><path class="st15" d="M353.2 58.3c-.1.9-.1 1.9-.1 2.8 0 2.1.3 4.1 1.5 5.7.7 1.2 1.9 1.9 3.2 2.4.9.3 2.2.1 2.5-.7.1-.3.1-.7.1-1 0-3.4-.7-6.8-1.9-10"/><path class="st7" d="M376.5 60.2c-1.3-5.2-5.5-12.4-12.2-10.9-4.3.9-8.1 3.8-9.4 7.8-1.5 4.9.9 10.5 3.8 14.4 1 1.5 2.4 2.8 4 3.7 4 2.1 9.3.3 11.9-2.9 2.6-3.4 2.9-8 1.9-12.1z"/><path class="st7" d="M366.9 73.7l2.2 8.1-2.9 1.5s2.4 3.1 6.8 2.4c9.3-1.3 12.2-7.8 12.2-7.8l-5.2-.6-5.7-9.9"/><path class="st15" d="M381.1 54.6c-.6-3.5-3.2-6.6-6.2-8.4-5.5-3.4-13.3-3.5-18.1 1C354 49.9 349 59 355 60.9c1.9.6 3.8-.6 5.4-1.6 1.6-1 3.2-2.2 5-3.2.6-.4 1.2-.7 1.9-.9 1.2 0 2.1 1 2.5 2.1.4 1 .4 2.4.7 3.4.1.7.6 1.6 1.2 2.1.7.4 1.8.3 2.2-.4.3-.6 0-1.2 0-1.8 0-.6.3-1.3.9-1.2.1 0 .4.1.6.3 1.5 1.2 1 3.4 1.5 5.2 0 .3-.4 3.8-.3 4 4.5-1.4 4.9-11.8 4.5-14.3z"/><path class="st7" d="M374.1 59.6c-.1-.6.6-1.3 1.2-1.3s1.3.3 1.8.7c.9.7 1.5 1.8 1.5 2.9 0 .9-.3 1.8-.9 2.5-.3.4-.7 1-1.3 1.2-.7.3-1.6-.1-2.1-.6"/><path class="st6" d="M210.2 337s9.9 1.6 10.2 3.8c.1 1.2-14 2.8-14.9 2.1-1.5-1.2.3-5.6.3-5.6l4.4-.3z"/><path class="st7" d="M209.3 331l.9 6.3s-.1 1-1.6 1.3c-1.5.3-2.5-.9-2.5-.9l-1.2-7.8"/><path class="st6" d="M172.2 187.8c-1.8 15.5-1.9 22.8 5 33.4 3.2 14.9 8.2 30.2 12.1 45.5-1.6 18.3 9.9 47.4 16.1 68.2l4.4-.7c6-37.4 8.2-94.9 2.8-145.1"/><path class="st8" d="M175.2 208.7s17.1 54.2 17.1 57.2c0 2.9.4 13.1 1.2 19.6 1.3 12.1 12.2 47.4 12.2 47.4"/><path class="st16" d="M205.2 335.8l-.7-2.7 5.7-.3.1 2.5-5.1.5z"/><path class="st6" d="M132.9 337.3s7.8 5.6 7.1 7.7c-.4 1.2-13.1-3.5-13.5-4.6-.7-1.6 2.7-4.6 2.7-4.6l3.7 1.5z"/><path class="st7" d="M134.8 331.9l-1.9 5.7s-.6.9-1.9.4c-1.3-.3-1.8-1.8-1.8-1.8l2.4-7.2"/><path class="st6" d="M138.9 184.5c-4.7 14.9-3.8 22.5.9 34.3.3 14 .4 28.3.6 42.4-10 25-11.6 47.4-10.3 71.3l4.9 1.8s28.7-50.1 34-69.8c6-22.7 9.4-47 10.5-69.7"/><path class="st8" d="M140.1 187.8s-5.2 15.3 1.6 30.1c0 4.1 2.4 38.3 1.5 43.6-.4 2.5-5.2 14.6-8.2 26.4-3.5 13-4.3 43.8-4.3 43.8"/><path class="st16" d="M129.1 332.6l.9-3.2 6.2 2.9-1.3 2.8-5.8-2.5z"/><path d="M219.2 70.2l-3.8-3.2v-6.8c0-1-1.5-7.4-2.8-7.4-1.3 0-1.6-1.6-2.2-.9-.6.6.6 7.8 0 8.4-.6.6-1.2-3.4-1.8-2.9-.4.3-.4 3.1-.4 4.6s1.2 4.3 2.4 5.5c1.2 1.2 6.3 6.8 6.3 6.8l2.3-4.1z" fill="#ef9467"/><path class="st9" d="M230.8 94.2c-3.7-1.3-9-4.6-12.1-6.5-6-4-12.1-6-16.2-6-8.8 0-4.3 29.2 6 33.4 19.4 2.9 41.2 1 44.6-5.7 5.1-10.2-26.2-20.8-22.3-15.2z"/><path class="st9" d="M157.9 89.3c-23.3 26.1-22.8 70.9-22.8 101.4 0 0 17.1 11.6 43 11.6 26.1 0 36.8-6.5 36.8-6.5.7-30.8-4.7-44.2.4-95.2 0 0-8.2-19-12.7-19-4.4 0-21.8-1.8-21.8-1.8l-22.9 9.5z"/><path class="st10" d="M214 115.7s.6-9 2.7-11"/><path class="st7" d="M188.6 60.5c.9-5.3 4.6-12.8 11.5-11.9 4.3.6 7.7 3.5 10 7.1 2.1 2.9 1.3 5.9-1.6 13.4-.9 1.6-2.9 4.3-4.6 5.3-3.7 2.4-9.1 1.2-12.1-1.9-2.9-3.2-4-7.9-3.2-12z"/><path class="st15" d="M189.4 59.7c1-.1 0-.7.4.1.3.6.3.7.9.9s.6.7 1 1c.7.6 1.3-.1 1.6-.7.6-1.2.6-2.5.4-3.7-.1-1-.4-2.5.6-3.2.7-.6 2.5.3 3.2.4 1.2.3 2.5.7 3.7 1.2 2.9.9 6 1.8 9.3 1.3 2.7-.3 5.6-1.8 6.8-4.3 1.6-3.1-1.6-6.9-4.7-6.9-.9 0-1.6.3-2.5.4-.3 0-.6.1-.9 0-.7-.1-1-1-1.3-1.6-1.2-1.8-3.2-2.4-5.3-2.2-2.4.3-4.4 1.3-6.6 2.1-1.2.3-2.2 0-3.4 0-1.2 0-2.5.9-3.1 1.9-1-1-3.1 1.5-3.7 2.1-2.4 2.8-3.1 6.9-3.1 10.6 0 3.1.4 7.8 4 9 1.5.6 2.4.9 2.5-.6-.6-1.3-.7-4.1-.9-5.3-.1-1.2.1-2.5 1.3-2.9"/><path class="st7" d="M200.6 73l-.7 8 2.7.7s-1.3 3.5-5.9 4.1c-9.3 1.2-15.8-5.9-15.8-5.9l3.1-.6 4.7-14.7"/><path class="st7" d="M190.9 59.7c0-.6-.6-1.2-1.3-1.2-.6 0-1.3.4-1.8.9-2.7 2.7.7 8.8 3.2 5.6"/><path class="st15" d="M208.4 68.9c-.4 1-2.1 1.3-2.9 1.5-4.4.4-8-2.4-12.1-2.8-.9-.1-1.8-.1-2.4.4-.6.6-.6 1.5-.6 2.2v2.9c.1.9.3 1.6.7 2.4 1.9 3.1 8.1 3.7 11.3 3.5 1.3-.1 2.7-.3 3.7-1 1.5-1 1.8-2.9 2.2-4.6.6-2.3.1-4.5.1-4.5z"/><path class="st7" d="M205.3 72.3c-.1-.1-.3-.1-.4-.1-2.1 0-3.1-.4-4.7-.6h-.7c-.6.1-.9.7-1 1.3-.1.6.1 1 .7 1.3.9.4 2.1.6 3.1.7.9 0 2.1.1 2.8-.4.2-.6.8-1.8.2-2.2z"/><path class="st11" d="M186.2 187.3c-50.7-2.7-80.1 23.6-101.2 71.2-27.2 61.9-65.2 66.7-82.3 66.4"/><path class="st12" d="M166.8 191.4c1.9 22.4 19.9 34.5 34.3 33.3l23.7-1.9-6-71.8-23.8 2c-14.4 1.2-30.2 16.1-28.2 38.4z"/><path class="st3" d="M179 190.4c1.8 21.8 16.2 38.5 32.3 37.1l26.2-2.2-6.6-79.1-26.2 2.2c-16.1 1.4-27.6 20.2-25.7 42z"/><path class="st12" d="M235.5 225.6c16-1.3 27.4-20.2 25.6-42.1-1.8-21.9-16.3-38.6-32.2-37.2-16 1.3-27.4 20.2-25.6 42.1 1.8 21.9 16.2 38.6 32.2 37.2z"/><path class="st3" d="M231 200.1c.3 3.2 2.7 5.7 5.4 5.5 2.8-.3 4.7-3.1 4.4-6.3-.3-3.2-2.7-5.7-5.4-5.5-2.8.3-4.7 3.1-4.4 6.3zm-2.4-28c.3 3.2 2.7 5.7 5.4 5.5 2.8-.3 4.7-3.1 4.4-6.3-.3-3.2-2.7-5.7-5.4-5.5-2.8.3-4.7 3.1-4.4 6.3z"/><path d="M234.4 175.8c2.9-.3 37-3.1 37-3.1 2.2-.1 4-2.2 3.7-4.4-.1-2.2-2.2-4-4.4-3.8 0 0-34.2 2.8-37 3.1-2.9.1-2.3 8.5.7 8.2zm2.3 28c2.9-.3 37-3.1 37-3.1 2.2-.1 4-2.2 3.7-4.4-.1-2.2-2.2-4-4.4-3.8 0 0-34.2 2.8-37 3.1-2.8.3-2.2 8.5.7 8.2z" fill="#e2e8ed"/><path class="st7" d="M145.5 122.8s-1.8 18.7 6.5 34.3c7.2 13.4 21.4 30.6 33 40.1l2.8-.7c-4-15.3-16.6-42.7-17.4-52.9-.7-10.2-.6-22.1-.7-27.8"/><path class="st9" d="M180.9 79.9s-16.2.9-25.6 8c-16.2 12.2-13 45.1-8.2 61.1 4.7 16.1 27.4 40.1 34.6 45.2 1.2 0 4.7-.3 4.6-3.1-4-12.5-15.6-45.4-15.6-45.4l1.8-44.3"/><path class="st7" d="M186.6 194.4c1.8.1 3.4 1 5 2.2 1.3 1 2.9 2.8 2.8 3.7-.1.9-2.4-.7-2.7-.4-.3.3 3.8 6.5 3.1 6.9-.7.4-4.3-5.2-4.3-5.2s3.4 5.9 2.1 6c-1 .1-4.1-5.5-4.1-5.5s2.5 5 1.6 5.2c-.9.1-3.2-4.9-3.2-4.9s1.9 4.3 1.2 4.4c-.3 0-2.2-2.1-3.1-4.7-.7-2.5-1.6-4.7-1-6.8"/><path class="st14" d="M175.2 158.9c-2.7-7.5-4.6-13.1-4.6-13.1l3.4-37.3m-30.8 9.1c-.1 10.2 1.2 22.5 3.7 31.4 2.2 7.7 8.7 17.2 15.6 25.8"/><path class="st7" d="M491.1 62.8l2.7-1.8s1.2-5.7 1.9-6.8c.7-1 2.1-3.4 3.5-4.4.6-.4 3.5-2.1 4.3-1.3.3.3-.9 3.7-1.5 4.3-.6.6-2.2 3.1-1.9 3.8.3.7 1.6-.9 1.9-1.3.3-.3.7-.7.9-.3.3.7-1.2 4.7-2.4 5.7-1.2 1.2-2.9 2.2-4.3 2.2l-4.1 3.5"/><path class="st19" d="M522.5 44.1c4.3 2.5 7.1 7.4 8.1 12.2.1.9.3 1.8.9 2.5.4.6 1.2.7 1.8 1 3.5 1.6 6.3 4.9 7.7 8.7.6 1.6.1 3.8.7 5.2.7 1.6 3.5 2.1 5.2 2.5 4.6 1.5 8 6 8 10.9 0 4.7-3.2 9.4-7.7 11.1 1.2 1.8 1.3 4 .9 6-.6 2.1-1.8 3.8-3.2 5.3-5.7 6.5-14.6 9.9-23.1 9.6-2.5-.1-5-.6-7.2-1.5-2.7-1-4.9-2.8-7.1-4.6-2.7-2.1-5.3-4.4-6.8-7.5-1.5-3.1-1.3-7.1 1-9.6-2.8.6-5.7-.9-7.4-3.4-1.6-2.4-1.9-5.5-1.2-8.3.6-2.8 2.1-5.3 3.8-7.7 1.2-1.6 2.7-3.2 2.8-5.3.4-3.4-1.5-6.3-1.9-9.6-.7-5.2-.6-9.6 3.8-12.4 1.5-3.7 3.1-6.5 7.2-7.5 4.7-1 9.4-.2 13.7 2.4z"/><path class="st20" d="M512 83.2c-14.7-3.8-31.5 2.2-35.2 2.2 5.2-5.2 14.6-16.5 17.8-20.5 0-2.7-1.6-3.5-1.6-3.5s-40.5 20.9-36.4 34.5c4.3 14.1 43.7 7.2 46.8 11.3"/><path class="st7" d="M514.8 215.5c0 1.2-5.3 27.1-5.7 29.9-1.2 8.1 3.1 16.2 2.8 28.7-.4 15.2-6.9 56.3-7.8 58.1-.9 1.8-4.7.1-4.7.1s-11.3-55-12.1-77.5c-.6-18.6 2.2-58.6 2.2-58.6"/><path class="st6" d="M504.5 332.7s.6 1.3.6 2.1c-.1 1.8-.1 2.8-.1 2.8h-.7l-.3-1.3s-1.9.3-4 1.6c-1 .6-5.9.6-6.6.1-.9-.4-.6-1.2-.3-1.6.3-.3 5.6-2.7 5.6-2.7"/><path class="st7" d="M499.3 332.3c-.4 1-4.6 3.2-4.3 3.7.4.3 2.8.3 5.5-.6 2.5-.9 3.8-1.8 4-2.4l-.4-1.8m47.2-114.7c0 1.2-4.4 27.3-4.7 30.1-.9 8.1 3.7 16.1 3.5 28.6 0 15.3-5.3 56.4-6 58.2-.7 1.8-4.7.3-4.7.3s-13.1-54.5-14.4-77.1c-1-18.6.4-58.6.4-58.6"/><path class="st6" d="M544.5 334.1s.7 1.3.7 2.1v2.9h-.7l-.3-1.3s-1.9.4-4 1.8c-.9.7-5.9.7-6.6.4-.9-.4-.6-1.2-.3-1.6.3-.3 5.5-2.8 5.5-2.8"/><path class="st7" d="M539.4 333.8c-.4 1-4.6 3.4-4.1 3.7.4.3 2.8.3 5.5-.7 2.4-.9 3.8-1.9 3.8-2.5l-.6-1.8"/><path class="st6" d="M538.1 150s11.6 7.7 16.1 25.9c6 24.8-2.8 73.2-2.8 73.2s-18.3 5.3-38.1 5.2c-19.9-.1-31.7-6.9-31.7-8.1 0-1.2-2.9-37.9 1-62.8 4.6-28 16.1-35.5 16.1-35.5"/><path class="st20" d="M522.3 82.7c1.8-.7 6.5 1 15.3 4.3 3.8 4.1 5.6 13.4 6.3 21.5-2.2 19.7-4.9 30.5-3.5 37.1.3 1.6 1.8 2.8 1.5 5-.4 4.6-8 5.3-22.1 6.8-14.1 1.6-26.8-4.9-26.1-6.8.7-2.1 3.2-3.8 3.5-5.2.4-1.3 1.5-18.3 0-20.2-1.5-2.1-5.4-7.8-5.4-13.4 0-8 4.4-11.5 7.2-15.8 4.7-7.2 8.4-11.8 13-13 7.4-1.6 10.3-.3 10.3-.3z"/><path class="st21" d="M498.4 92.7s.4 3.4-1.2 6.2c-.6.9-3.7 4.1-4.4 6.2"/><path class="st7" d="M518.9 73c3.8-3.8 4.4-11.1 2.7-16.1-1.9-5.6-9.9-9.7-15.3-6.2-10.7 7 .1 34.7 12.6 22.3z"/><path class="st7" d="M511.6 72.4l.1 11.8s-.4 2.7 4.1 2.8c6.3.3 6.3-4.3 6.3-4.3l-3.7-12.2"/><path class="st19" d="M516.3 45.6c-1.3-.9-2.7-.9-4-.1-.9.4-1.5 1.3-2.2 1.6-.6.3-1.3.3-2.1.4-3.1.9-6 3.2-7.2 6.2-1.3 2.9-.9 7.8 1.6 9.9-.1-2.2.6-5.6 1.8-7.5.6-1 1.6-2.1 2.8-1.9 1.3.1 2.1 1.6 3.1 2.5 1.5 1.5 3.5 1.8 5.4 2.1 2.2.3 3.8.7 5 2.8.4.9.7 1.9 1 2.9.3 1.2.6 2.4.7 3.7 0 .7 0 1.6.3 2.4.4 1.5 1.9 2.4 3.4 2.8 1.2.4 2.9.7 3.7-.6.6-1 1-2.5 1.3-3.7.7-4-.6-8.1-2.8-11.5-2.4-3.7-5.7-6.2-8.7-9.4-1.2-1-2.1-2-3.1-2.6z"/><path class="st7" d="M519.4 63.9c.3-.9.9-1.8 1.8-1.9 2.9-.4 2.5 4 1.3 5.6-.7.9-2.5 2.1-3.2-.4m32 88.9l-1.5 3.1s-5.3 1.3-5.9 2.2c-.9 1.5-2.2 3.5-2.2 4.7 0 1.2.1 6.3 1.6 6.3.9 0 3.1-4.1 3.5-4.7 1-1.3 5.3-2.4 5.3-6l2.7-5.5"/><path class="st20" d="M522.3 82.6s12.5-3.2 22.2 2.9c7.5 4.7 27.1 28.6 27.1 42.3 0 9.1-18.3 32-18.3 32l-3.1-2.2s1.8-18 7.1-27.7c-4-4-19.1-16.1-23-19.9"/><path class="st21" d="M532.5 108.6c2.8 2.4 9.9 8.3 9.9 8.3"/><path class="st20" d="M164.3 61.5l-15-12.2s6.8-25-2.2-33.9c-4.7-4.7-10.8-7.8-17.1-10.2C116 0 99.5-1.3 87.1 7 78 13 72.4 23.5 69.9 34.1c-2.2 9.4-2.1 20 3.8 27.7 2.7 3.4 6.2 6 10 8.1 11.9 6.2 43.4 8.5 57.1-.6 3.8-2.5 3.4-6 5-11.3l18.5 3.5z" opacity=".25"/><path class="st3" d="M90.9 38.2l2.7-7.1H97l-5.2 12.3-.4.8c-.8 1.3-2 2-3.5 2h-1.1v-2.5h.8c.4 0 .8-.1 1-.2.3-.2.5-.4.7-.8l.4-1-5.2-10.6h3.3l3.1 7.1zm11.6 3.7l2.1-6.9h3.2l-4.5 12.8-.2.6c-.7 1.4-1.8 2.2-3.3 2.2-.4 0-.9-.1-1.3-.2v-2.2h.5c.6 0 1-.1 1.3-.3.3-.2.5-.5.7-.9l.3-.9-4-11.1h3.2l2 6.9zm16.1 4.2h-3v-8.7h-3.7v8.7h-3V35h9.6v11.1zm6.9-2.2c.5 0 1-.2 1.3-.5.3-.3.5-.7.5-1.2h2.8c0 .8-.2 1.4-.6 2.1-.4.6-1 1.1-1.7 1.5-.7.3-1.5.5-2.3.5-1.6 0-2.8-.5-3.8-1.5-.9-1-1.4-2.4-1.4-4.2v-.2c0-1.7.5-3.1 1.4-4.1.9-1 2.2-1.5 3.7-1.5 1.4 0 2.5.4 3.3 1.2.8.8 1.3 1.8 1.3 3.1h-2.8c0-.6-.2-1-.5-1.4-.3-.4-.8-.5-1.4-.5-.7 0-1.2.3-1.6.8-.3.5-.5 1.3-.5 2.4v.3c0 1.1.2 2 .5 2.5.5.4 1.1.7 1.8.7zm9.3-2.4h-2.5l-.3-10.4h3.2l-.4 10.4zm-1.2 1.6c.5 0 .9.1 1.2.4.3.3.5.7.5 1.1 0 .5-.2.8-.5 1.1-.3.3-.7.4-1.2.4s-.9-.1-1.2-.4c-.3-.3-.5-.7-.5-1.1 0-.5.2-.8.5-1.1.3-.3.7-.4 1.2-.4z"/><path class="st9" d="M217.3 68l-3.2 3.7s12.8 16.9 16.8 22.5c-3.7-1.3 19 22 22.4 15.2 4.9-10.2-23.7-34.1-36-41.4z"/><path class="st14" d="M230.8 94.2s2.5 6.8 6.8 9"/></svg>