<svg width="156" height="53" viewBox="0 0 156 53" fill="none" xmlns="http://www.w3.org/2000/svg"><path d="M28.31 19.173s8.223 6.886 4.899 15.362c-3.324 8.476-13.646 17.658-13.646 17.658s-9.098-7.946-4.024-17.305C20.612 25.53 28.31 19.173 28.31 19.173z" fill="#fff"/><path d="M19.273 0s13.214 11.941-.502 25.93c0 0-10.704 8.87-6.69 17.742 0 0-20.422-11.754-8.162-28.438a9.7 9.7 0 01.652-.802C6.211 12.572 13.252 4.64 19.273 0zM47.04 20.185c-1.536 0-2.568.6-3.12 1.44v-.504c0-.384-.216-.6-.6-.6h-2.4c-.384 0-.6.216-.6.6v10.8c0 .384.216.6.6.6h2.4c.384 0 .6-.216.6-.6v-6.408c0-1.416.672-2.016 1.752-2.016.912 0 1.608.528 1.608 1.728v6.696c0 .384.216.6.6.6h2.4c.384 0 .6-.216.6-.6v-7.008c0-3-1.608-4.728-3.84-4.728zm11.139 0c-2.448 0-4.656 1.32-4.968 3.912-.024.408.216.624.6.624h2.352c.36 0 .48-.192.624-.528.192-.408.648-.696 1.392-.696 1.008 0 1.488.528 1.488 1.704v1.104c-.648-.504-1.608-.936-3.096-.936-2.112 0-3.96 1.248-3.96 3.744 0 2.496 1.848 3.744 3.96 3.744 1.488 0 2.448-.504 3.096-1.272v.336c0 .384.216.6.6.6h2.304c.384 0 .6-.216.6-.6v-6.96c0-3.24-2.352-4.776-4.992-4.776zm-.336 10.128c-1.104 0-1.632-.504-1.632-1.2s.528-1.2 1.632-1.2c1.176 0 1.824.456 1.824 1.2 0 .696-.648 1.2-1.824 1.2zm13.745-9.984c-1.2.192-2.16.888-2.496 2.112v-1.32c0-.384-.216-.6-.6-.6h-2.4c-.384 0-.6.216-.6.6v10.8c0 .384.216.6.6.6h2.4c.384 0 .6-.216.6-.6v-5.064c0-1.92 1.296-2.592 2.64-2.544.312 0 .48-.192.48-.576v-2.832c0-.384-.216-.648-.624-.576zm13.655-4.608h-2.4c-.384 0-.6.216-.6.6v5.328c-.816-.912-1.992-1.464-3.576-1.464-3.144 0-5.736 2.76-5.736 6.336 0 3.576 2.592 6.336 5.736 6.336 1.584 0 2.76-.528 3.576-1.44v.504c0 .384.216.6.6.6h2.4c.384 0 .6-.216.6-.6v-15.6c0-.384-.216-.6-.6-.6zM79.387 29.45c-1.656 0-2.856-1.128-2.856-2.928s1.2-2.928 2.856-2.928 2.856 1.128 2.856 2.928-1.2 2.928-2.856 2.928zm14.93-9.264c-3.793 0-6.433 2.76-6.433 6.336 0 3.576 2.544 6.336 6.528 6.336 2.448 0 4.416-1.08 5.352-3.168.192-.384-.048-.672-.48-.672l-2.304.024c-.312 0-.504.12-.744.312-.432.36-1.104.6-1.776.6-1.272 0-2.376-.552-2.808-1.992h8.016c.36 0 .6-.168.648-.552.024-.288.048-.576.048-.888 0-3.624-2.544-6.336-6.048-6.336zm-2.689 5.04c.36-1.176 1.296-1.848 2.664-1.848 1.056 0 2.112.504 2.472 1.848h-5.136zm17.907-5.04c-1.608 0-2.784.552-3.576 1.464v-.528c0-.384-.216-.6-.6-.6h-2.4c-.384 0-.6.216-.6.6v15.6c0 .384.216.6.6.6h2.4c.384 0 .6-.216.6-.6v-5.304c.792.912 1.968 1.44 3.576 1.44 3.144 0 5.736-2.76 5.736-6.336 0-3.576-2.592-6.336-5.736-6.336zm-.72 9.264c-1.656 0-2.856-1.128-2.856-2.928s1.2-2.928 2.856-2.928 2.856 1.128 2.856 2.928-1.2 2.928-2.856 2.928zm8.491 3.072h2.64c.384 0 .6-.216.6-.6v-2.64c0-.384-.216-.6-.6-.6h-2.64c-.384 0-.6.216-.6.6v2.64c0 .384.216.6.6.6zm6.606 0h2.4c.384 0 .6-.216.6-.6v-16.08c0-.384-.216-.6-.6-.6h-2.4c-.384 0-.6.216-.6.6v16.08c0 .384.216.6.6.6zm6.235-13.44h2.4c.384 0 .6-.216.6-.6v-2.16c0-.384-.216-.6-.6-.6h-2.4c-.384 0-.6.216-.6.6v2.16c0 .384.216.6.6.6zm0 13.44h2.4c.384 0 .6-.216.6-.6v-10.8c0-.384-.216-.6-.6-.6h-2.4c-.384 0-.6.216-.6.6v10.8c0 .384.216.6.6.6zm11.13-13.704c.408 0 .624-.192.624-.576v-2.256c0-.384-.216-.624-.6-.624-3.576 0-5.232 1.968-5.232 5.16h-1.008c-.384 0-.6.216-.6.6v2.256c0 .384.216.6.6.6h1.008v7.944c0 .384.216.6.6.6h2.4c.384 0 .6-.216.6-.6v-7.944h1.632c.384 0 .6-.216.6-.6v-2.256c0-.384-.216-.6-.6-.6h-1.632c0-1.152.624-1.704 1.608-1.704zm7.648 1.368c-3.792 0-6.432 2.76-6.432 6.336 0 3.576 2.544 6.336 6.528 6.336 2.448 0 4.416-1.08 5.352-3.168.192-.384-.048-.672-.48-.672l-2.304.024c-.312 0-.504.12-.744.312-.432.36-1.104.6-1.776.6-1.272 0-2.376-.552-2.808-1.992h8.016c.36 0 .6-.168.648-.552.024-.288.048-.576.048-.888 0-3.624-2.544-6.336-6.048-6.336zm-2.688 5.04c.36-1.176 1.296-1.848 2.664-1.848 1.056 0 2.112.504 2.472 1.848h-5.136z" fill="#fff"/></svg>