<svg width="162" height="74" viewBox="0 0 162 74" fill="none" xmlns="http://www.w3.org/2000/svg">
<path d="M24.7328 73.3833H24.1145L0 0H48.8473L24.7328 73.3833Z" fill="url(#paint0_linear)"/>
<path d="M25 73.5H24L18.5 56H30.5L25 73.5Z" fill="#D6D6D6"/>
<path d="M34.3788 32.0667H38.0887L31.6581 38.48L38.4597 45.51H34.7497L28.9375 39.8367V45.51H26.0933V23.8033H28.9375V37.4933L34.3788 32.0667Z" fill="#1E1E1E"/>
<path d="M53.1754 45.5101H50.5785L50.3312 44.4001L50.2075 44.2767L50.0838 44.4001C49.2182 45.2634 47.7342 45.8801 46.3739 45.8801C42.664 45.8801 39.4487 43.0434 39.4487 38.8501C39.4487 34.6567 42.664 31.8201 46.3739 31.8201C47.8579 31.8201 49.2182 32.4367 50.0838 33.3001L50.2075 33.4234L50.3312 33.3001L50.5785 32.1901H53.1754V45.5101ZM46.3739 34.4101C43.6533 34.4101 42.1693 36.3834 42.1693 38.8501C42.1693 41.3167 43.6533 43.2901 46.3739 43.2901C48.8472 43.2901 50.5785 41.3167 50.5785 38.8501C50.5785 36.3834 48.8472 34.4101 46.3739 34.4101Z" fill="#1E1E1E"/>
<path d="M57.7514 32.0667H60.3484L60.5957 33.5467L60.7193 33.6701L60.843 33.5467C61.7087 32.4367 62.8216 31.8201 64.0583 31.8201C64.6766 31.8201 64.9239 31.8201 65.5422 32.0667V34.6567H63.811C62.0797 34.6567 60.7193 36.0134 60.5957 37.7401V45.6334H57.7514V32.0667Z" fill="#1E1E1E"/>
<path d="M80.9999 45.5101H78.4029L78.1556 44.4001L78.0319 44.2767L77.9083 44.4001C77.0426 45.2634 75.5587 45.8801 74.1984 45.8801C70.4884 45.8801 67.2732 43.0434 67.2732 38.8501C67.2732 34.6567 70.4884 31.8201 74.1984 31.8201C75.6823 31.8201 77.0426 32.4367 77.9083 33.3001L78.0319 33.4234L78.1556 33.3001L78.4029 32.1901H80.9999V45.5101ZM74.322 34.4101C71.6014 34.4101 70.1174 36.3834 70.1174 38.8501C70.1174 41.3167 71.6014 43.2901 74.322 43.2901C76.7953 43.2901 78.5266 41.3167 78.5266 38.8501C78.5266 36.3834 76.6716 34.4101 74.322 34.4101Z" fill="#1E1E1E"/>
<path d="M85.5758 32.0667H88.1728L88.4201 33.1767L88.5437 33.3L88.6674 33.1767C89.2857 32.3133 90.646 31.6967 91.8827 31.6967C95.3453 31.6967 97.3239 34.04 97.3239 37.1233V45.3867H94.4796V37.1233C94.356 35.2733 93.4903 34.2867 91.6353 34.2867C89.904 34.2867 88.5437 35.6433 88.4201 37.37V45.51H85.5758V32.0667Z" fill="#1E1E1E"/>
<path d="M114.637 45.51H112.04L111.792 44.4L111.669 44.2767L111.545 44.4C110.68 45.2633 109.196 45.88 107.835 45.88C104.125 45.88 100.91 43.0433 100.91 38.85C100.91 34.6567 104.125 31.82 107.835 31.82C109.196 31.82 110.68 32.4367 111.545 33.3L111.669 33.4233L111.792 33.3V23.8033H114.637V45.51ZM107.959 34.41C105.238 34.41 103.754 36.3833 103.754 38.85C103.754 41.3167 105.238 43.29 107.959 43.29C110.432 43.29 112.163 41.3167 112.163 38.85C112.04 36.3833 110.309 34.41 107.959 34.41Z" fill="#1E1E1E"/>
<path d="M132.197 45.5101H129.6L129.353 44.4001L129.229 44.2767L129.105 44.4001C128.24 45.2634 126.756 45.8801 125.395 45.8801C121.686 45.8801 118.471 43.0434 118.471 38.8501C118.471 34.6567 121.686 31.8201 125.395 31.8201C126.879 31.8201 128.24 32.4367 129.105 33.3001L129.229 33.4234L129.353 33.3001L129.6 32.1901H132.197V45.5101ZM125.395 34.4101C122.675 34.4101 121.191 36.3834 121.191 38.8501C121.191 41.3167 122.675 43.2901 125.395 43.2901C127.869 43.2901 129.6 41.3167 129.6 38.8501C129.6 36.3834 127.869 34.4101 125.395 34.4101Z" fill="#1E1E1E"/>
<path d="M135.66 41.8101L138.256 40.8234C138.38 42.3034 139.617 43.2901 140.977 43.2901C142.461 43.2901 143.079 42.5501 143.079 41.6867C143.079 40.8234 142.461 40.4534 141.348 40.2067C140.853 40.0834 140.359 39.9601 139.864 39.8367C137.515 39.2201 136.031 37.8634 136.031 35.7667C136.031 33.1767 138.504 31.8201 140.73 31.8201C143.203 31.8201 145.305 33.4234 145.676 35.7667H142.832C142.832 34.9034 141.966 34.2867 140.853 34.2867C139.74 34.2867 138.875 34.9034 138.875 35.7667C138.875 36.6301 139.617 37.1234 140.606 37.3701L142.09 37.6167C144.316 38.1101 145.924 39.3434 145.924 41.6867C145.924 44.0301 143.821 45.8801 140.977 45.8801C138.256 45.8801 136.278 44.2767 135.66 41.8101Z" fill="#1E1E1E"/>
<path d="M149.634 23.8033H152.478V33.3H152.602L152.725 33.1767C153.344 32.3133 154.704 31.6967 155.94 31.6967C159.403 31.6967 161.382 34.04 161.382 37.1233V45.3867H158.537V37.1233C158.414 35.2733 157.548 34.2867 155.693 34.2867C153.962 34.2867 152.602 35.6433 152.478 37.37V45.51H149.634V23.8033Z" fill="#1E1E1E"/>
<defs>
<linearGradient id="paint0_linear" x1="-4.67685" y1="57.2655" x2="54.3945" y2="-14.4338" gradientUnits="userSpaceOnUse">
<stop stop-color="#FF8E00"/>
<stop offset="0.4662" stop-color="#FF980A"/>
<stop offset="1" stop-color="#FF9C0E"/>
</linearGradient>
</defs>
</svg>
