<svg width="17" height="17" viewBox="0 0 17 17" fill="none" xmlns="http://www.w3.org/2000/svg">
<path d="M15.8577 15.1839L11.9849 11.3731C12.9991 10.2712 13.6222 8.81401 13.6222 7.21051C13.6217 3.78032 10.7964 1 7.31086 1C3.82535 1 1 3.78032 1 7.21051C1 10.6407 3.82535 13.421 7.31086 13.421C8.81684 13.421 10.1981 12.9001 11.2831 12.0341L15.1708 15.86C15.3603 16.0466 15.6678 16.0466 15.8572 15.86C16.0471 15.6734 16.0471 15.3705 15.8577 15.1839ZM7.31086 12.4655C4.36174 12.4655 1.97101 10.1128 1.97101 7.21051C1.97101 4.30825 4.36174 1.95552 7.31086 1.95552C10.26 1.95552 12.6507 4.30825 12.6507 7.21051C12.6507 10.1128 10.26 12.4655 7.31086 12.4655Z" fill="#00364D" stroke="#FF9A0C"/>
</svg>
