<svg width="32" height="31" viewBox="0 0 32 31" fill="none" xmlns="http://www.w3.org/2000/svg">
<path fill-rule="evenodd" clip-rule="evenodd" d="M16 0.53125C7.58629 0.53125 0.765625 7.35191 0.765625 15.7656C0.765625 24.1793 7.58629 31 16 31C24.4137 31 31.2344 24.1793 31.2344 15.7656C31.2344 7.35191 24.4137 0.53125 16 0.53125ZM15.5754 13.4409L15.5434 12.9137C15.4475 11.5474 16.2894 10.2995 17.6214 9.8154C18.1116 9.64327 18.9428 9.62175 19.4862 9.77237C19.6993 9.83691 20.1043 10.0521 20.392 10.2457L20.9141 10.6007L21.4896 10.4178C21.8093 10.321 22.2355 10.1597 22.4273 10.0521C22.6085 9.95525 22.7683 9.90146 22.7683 9.93374C22.7683 10.1166 22.374 10.7406 22.0437 11.0848C21.5961 11.569 21.724 11.612 22.6298 11.2892C23.1732 11.1064 23.1839 11.1064 23.0773 11.3108C23.0134 11.4183 22.6831 11.7949 22.3314 12.1391C21.7347 12.7308 21.7027 12.7954 21.7027 13.2902C21.7027 14.0541 21.3404 15.6463 20.9781 16.5177C20.3067 18.1529 18.8682 19.8419 17.4296 20.6918C15.4049 21.8859 12.7089 22.1871 10.4392 21.4879C9.68257 21.2512 8.38253 20.6487 8.38253 20.5412C8.38253 20.5089 8.7768 20.4659 9.25633 20.4551C10.258 20.4336 11.2597 20.1539 12.1122 19.659L12.6876 19.3147L12.0269 19.0888C11.0892 18.7661 10.2473 18.0238 10.0342 17.3245C9.97029 17.0986 9.9916 17.0878 10.5883 17.0878L11.2064 17.0771L10.6843 16.8296C10.0662 16.5177 9.50142 15.9905 9.22436 15.4526C9.02189 15.0653 8.76615 14.0863 8.84074 14.011C8.86205 13.9788 9.08583 14.0433 9.34158 14.1294C10.0769 14.3983 10.1728 14.3338 9.74651 13.8819C8.9473 13.0643 8.70221 11.8487 9.08583 10.6976L9.26698 10.1812L9.97029 10.8804C11.4089 12.2897 13.1032 13.1289 15.0426 13.3763L15.5754 13.4409Z" fill="white"/>
</svg>
