<svg width="31" height="31" viewBox="0 0 31 31" fill="none" xmlns="http://www.w3.org/2000/svg">
<path fill-rule="evenodd" clip-rule="evenodd" d="M15.7656 31C24.1793 31 31 24.1793 31 15.7656C31 7.35191 24.1793 0.53125 15.7656 0.53125C7.35191 0.53125 0.53125 7.35191 0.53125 15.7656C0.53125 24.1793 7.35191 31 15.7656 31ZM12.9721 22.748C13.3426 22.748 13.512 22.5831 13.7166 22.3839L13.7338 22.3671L15.5639 20.5877L19.3711 23.4005C20.0717 23.7871 20.5774 23.5869 20.7519 22.7501L23.2509 10.9735C23.5068 9.94772 22.8599 9.48246 22.1897 9.78674L7.51518 15.4452C6.5135 15.8469 6.51934 16.4058 7.33259 16.6548L11.0984 17.8301L19.8167 12.3299C20.2282 12.0803 20.606 12.2145 20.2959 12.4897L13.2319 18.8644L13.2314 18.8641L12.9721 22.748Z" fill="white"/>
</svg>
