<svg width="26" height="26" viewBox="0 0 26 26" fill="none" xmlns="http://www.w3.org/2000/svg">
<path fill-rule="evenodd" clip-rule="evenodd" d="M13 0C5.8203 0 0 5.8203 0 13C0 20.1797 5.8203 26 13 26C20.1797 26 26 20.1797 26 13C26 5.8203 20.1797 0 13 0ZM12.6377 11.0162L12.6104 10.5664C12.5286 9.40048 13.2469 8.33558 14.3836 7.92247C14.8019 7.77559 15.5111 7.75723 15.9749 7.88575C16.1568 7.94083 16.5023 8.12444 16.7478 8.28968L17.1934 8.59263L17.6844 8.43656C17.9572 8.35394 18.321 8.21624 18.4846 8.12444C18.6392 8.04181 18.7756 7.99591 18.7756 8.02345C18.7756 8.17952 18.4392 8.71197 18.1573 9.00574C17.7754 9.41884 17.8845 9.45556 18.6574 9.18016C19.1212 9.0241 19.1303 9.0241 19.0393 9.19852C18.9848 9.29032 18.7029 9.61163 18.4028 9.90539C17.8936 10.4103 17.8663 10.4654 17.8663 10.8877C17.8663 11.5395 17.5571 12.8981 17.248 13.6417C16.6751 15.0371 15.4475 16.4784 14.2199 17.2036C12.4922 18.2226 10.1916 18.4797 8.25475 17.883C7.60913 17.681 6.49976 17.1669 6.49976 17.0751C6.49976 17.0476 6.83621 17.0109 7.2454 17.0017C8.10016 16.9833 8.95493 16.7446 9.68239 16.3223L10.1734 16.0286L9.60964 15.8358C8.80944 15.5604 8.09107 14.927 7.90921 14.3302C7.85465 14.1375 7.87283 14.1283 8.38206 14.1283L8.90946 14.1191L8.46389 13.908C7.93649 13.6417 7.45455 13.1919 7.21812 12.7329C7.04535 12.4024 6.82711 11.567 6.89076 11.5027C6.90895 11.4752 7.09991 11.5303 7.31815 11.6037C7.94558 11.8332 8.02742 11.7782 7.66369 11.3926C6.9817 10.6949 6.77255 9.65753 7.09991 8.67525L7.25449 8.2346L7.85465 8.83131C9.08223 10.0339 10.5281 10.75 12.183 10.9611L12.6377 11.0162Z" fill="#5D636C"/>
</svg>
