<svg width="26" height="26" viewBox="0 0 26 26" fill="none" xmlns="http://www.w3.org/2000/svg">
<path fill-rule="evenodd" clip-rule="evenodd" d="M13 26C20.1797 26 26 20.1797 26 13C26 5.8203 20.1797 0 13 0C5.8203 0 0 5.8203 0 13C0 20.1797 5.8203 26 13 26ZM10.6162 18.9583C10.9324 18.9583 11.0769 18.8176 11.2515 18.6476L11.2662 18.6333L12.8278 17.1148L16.0767 19.5151C16.6745 19.845 17.106 19.6742 17.2549 18.9601L19.3875 8.91074C19.6058 8.03539 19.0538 7.63837 18.4819 7.89802L5.95962 12.7265C5.10486 13.0694 5.10984 13.5463 5.80381 13.7587L9.0173 14.7617L16.4569 10.0682C16.8081 9.85521 17.1304 9.96971 16.8659 10.2045L10.8379 15.6443L10.8374 15.644L10.6162 18.9583Z" fill="#5D636C"/>
</svg>
